# xmcd
# 
# Track frame offsets:
#     150
#     12571
#     26018
#     37433
#     49004
#     61500
#     75195
#     90782
#     101957
#     116430
#     131514
#     144369
#     158375
#     171765
#     186244
#     204644
#     217267
#     230173
#     243405
# 
# Disc length: 3825
# 
# Revision: 1
# Processed by: cddbd v1.5.2PL0 Copyright (c) Steve Scherf et al.
# Submitted via: fre:ac v1.0.31
# 
DISCID=000eef13
DTITLE=Charlie Parker - Dewey Square
DYEAR=0
DGENRE=Jazz
TTITLE0=Chasin' the Bird
TTITLE1=Cheryl
TTITLE2=Buzzy
TTITLE3=Milestones
TTITLE4=Hale Nelson
TTITLE5=Dexterity
TTITLE6=Dewey Square
TTITLE7=The Hyme
TTITLE8=Bird of Paradise
TTITLE9=Embraceable You
TTITLE10=Bird Feathers
TTITLE11=Klactoveesedstene
TTITLE12=Scrapple from the Apple
TTITLE13=My Old Flame
TTITLE14=Out of Nowhere
TTITLE15=Don't Blame Me
TTITLE16=Drifting on a Reed
TTITLE17=Quasimodo
TTITLE18=Sweet Giorgia Brown
EXTD=
EXTT0=
EXTT1=
EXTT2=
EXTT3=
EXTT4=
EXTT5=
EXTT6=
EXTT7=
EXTT8=
EXTT9=
EXTT10=
EXTT11=
EXTT12=
EXTT13=
EXTT14=
EXTT15=
EXTT16=
EXTT17=
EXTT18=
PLAYORDER=
